<svg width="12.833984" height="6.575439" viewBox="0 0 12.834 6.57544" fill="none" xmlns="http://www.w3.org/2000/svg" xmlns:xlink="http://www.w3.org/1999/xlink">
	<defs/>
	<path id="Vector" d="M7.06836 4.47876C6.98291 4.5647 6.88184 4.63281 6.77002 4.67944C6.6582 4.72583 6.53857 4.74976 6.41748 4.74976C6.29639 4.74976 6.17676 4.72583 6.06494 4.67944C5.95312 4.63281 5.85156 4.5647 5.7666 4.47876L1.56836 0.27124C1.48291 0.185303 1.38184 0.117188 1.27002 0.0705566C1.1582 0.0239258 1.03857 0 0.91748 0C0.796387 0 0.676758 0.0239258 0.564941 0.0705566C0.453125 0.117188 0.351562 0.185303 0.266602 0.27124C0.0957031 0.442871 0 0.675293 0 0.91748C0 1.15967 0.0957031 1.39185 0.266602 1.56372L4.47412 5.77124C4.98975 6.28613 5.68848 6.57544 6.41748 6.57544C7.146 6.57544 7.84521 6.28613 8.36084 5.77124L12.5684 1.56372C12.7378 1.39307 12.833 1.1626 12.834 0.922119C12.835 0.80127 12.8115 0.681885 12.7661 0.570068C12.7202 0.458496 12.6533 0.356934 12.5684 0.27124C12.4829 0.185303 12.3818 0.117188 12.27 0.0705566C12.1582 0.0239258 12.0386 0 11.9175 0C11.7964 0 11.6768 0.0239258 11.5649 0.0705566C11.4531 0.117188 11.3516 0.185303 11.2666 0.27124L7.06836 4.47876Z" fill="#FD9222" fill-opacity="1.000000" fill-rule="nonzero"/>
</svg>
