<svg width="213.145020" height="24.000000" viewBox="0 0 213.145 24" fill="none" xmlns="http://www.w3.org/2000/svg" xmlns:xlink="http://www.w3.org/1999/xlink">
	<defs>
		<clipPath id="clip34_4376">
			<rect id="chocolate" width="24.000000" height="24.000000" transform="translate(189.145020 0.000000)" fill="white" fill-opacity="0"/>
		</clipPath>
	</defs>
	<path id="SIMPLY CHOCOLATE" d="M5.05811 18.2153Q3.56396 18.2153 2.19727 17.8198Q0.830566 17.4243 0 16.8135L1.19092 14.5635Q2.05225 15.1919 3.1333 15.5347Q4.21436 15.8774 5.34814 15.8774Q6.55225 15.8774 7.25537 15.4819Q7.9585 15.082 7.9585 14.4009Q7.9585 13.8428 7.40039 13.5483Q6.84229 13.2495 5.61621 12.9067Q4.39453 12.5464 3.6167 12.2124Q2.84326 11.8784 2.27637 11.2148Q1.70947 10.5469 1.70947 9.44824Q1.70947 8.17383 2.42139 7.20264Q3.1333 6.22705 4.43848 5.7085Q5.74365 5.18555 7.4707 5.18555Q8.74951 5.18555 9.8833 5.4668Q11.0171 5.74365 11.8257 6.26221L10.7271 8.49463Q10.0283 8.01123 9.14502 7.76953Q8.26172 7.52344 7.30811 7.52344Q6.06885 7.52344 5.34814 7.9585Q4.62744 8.38916 4.62744 9.07031Q4.62744 9.48779 4.93066 9.76904Q5.23828 10.0459 5.7041 10.2173Q6.17432 10.3843 7.02246 10.6216Q8.22656 10.9424 9 11.2764Q9.77344 11.6104 10.3228 12.252Q10.8721 12.8892 10.8721 13.9307Q10.8721 15.2271 10.1514 16.1895Q9.43506 17.1519 8.12109 17.6836Q6.80713 18.2153 5.05811 18.2153ZM14.13 5.40088L17.0656 5.40088L14.5431 18L11.612 18L14.13 5.40088ZM33.6796 5.40088L31.1791 18L28.4413 18L29.9179 10.5117L25.1102 16.6685L23.8139 16.6685L21.2211 10.4414L19.7094 18L16.976 18L19.494 5.40088L21.8715 5.40088L25.0224 13.2495L31.1791 5.40088L33.6796 5.40088ZM41.2373 5.40088Q43.5972 5.40088 44.8848 6.43799Q46.1724 7.4707 46.1724 9.3252Q46.1724 10.9072 45.4253 12.0894Q44.6782 13.2671 43.2983 13.8955Q41.9228 14.5239 40.0508 14.5239L37.2427 14.5239L36.5571 18L33.626 18L36.144 5.40088L41.2373 5.40088ZM40.1782 12.1509Q41.6372 12.1509 42.4282 11.4873Q43.2192 10.8193 43.2192 9.57568Q43.2192 8.6748 42.6172 8.22656Q42.0151 7.77393 40.8769 7.77393L38.5918 7.77393L37.7129 12.1509L40.1782 12.1509ZM48.6 5.40088L51.5356 5.40088L49.4833 15.6226L55.8027 15.6226L55.3149 18L46.082 18L48.6 5.40088ZM62.0306 13.6274L61.1648 18L58.2469 18L59.1302 13.5L55.8914 5.40088L58.805 5.40088L61.055 11.0171L65.577 5.40088L68.5828 5.40088L62.0306 13.6274ZM78.3005 18.2153Q76.3756 18.2153 74.8156 17.3804Q73.2599 16.541 72.3678 15.0557Q71.4801 13.5703 71.4801 11.6982Q71.4801 9.82617 72.3678 8.34521Q73.2599 6.85986 74.8156 6.0249Q76.3756 5.18555 78.318 5.18555Q79.9572 5.18555 81.2799 5.76123Q82.6027 6.33691 83.5036 7.41797L81.6315 9.14502Q80.3527 7.66846 78.4631 7.66846Q77.2941 7.66846 76.3756 8.18262Q75.4572 8.69238 74.943 9.61084Q74.4289 10.5293 74.4289 11.6982Q74.4289 12.8716 74.943 13.79Q75.4572 14.7041 76.3756 15.2183Q77.2941 15.7324 78.4631 15.7324Q80.3527 15.7324 81.6315 14.2383L83.5036 15.9653Q82.6027 17.064 81.2712 17.6396Q79.9396 18.2153 78.3005 18.2153ZM96.4828 5.40088L96.4828 18L93.5648 18L93.5648 12.832L87.8431 12.832L87.8431 18L84.9252 18L84.9252 5.40088L87.8431 5.40088L87.8431 10.3667L93.5648 10.3667L93.5648 5.40088L96.4828 5.40088ZM105.033 18.2153Q103.069 18.2153 101.491 17.3716Q99.9179 16.5234 99.0258 15.0381Q98.1381 13.5527 98.1381 11.6982Q98.1381 9.84814 99.0258 8.36279Q99.9179 6.87744 101.491 6.03369Q103.069 5.18555 105.033 5.18555Q106.993 5.18555 108.558 6.03369Q110.126 6.87744 111.023 8.36279Q111.924 9.84814 111.924 11.6982Q111.924 13.5527 111.023 15.0381Q110.126 16.5234 108.558 17.3716Q106.993 18.2153 105.033 18.2153ZM105.033 15.7324Q106.145 15.7324 107.046 15.2183Q107.947 14.7041 108.461 13.79Q108.975 12.8716 108.975 11.6982Q108.975 10.5293 108.461 9.61084Q107.947 8.69238 107.046 8.18262Q106.145 7.66846 105.033 7.66846Q103.917 7.66846 103.016 8.18262Q102.115 8.69238 101.601 9.61084Q101.087 10.5293 101.087 11.6982Q101.087 12.8716 101.601 13.79Q102.115 14.7041 103.016 15.2183Q103.917 15.7324 105.033 15.7324ZM119.61 18.2153Q117.686 18.2153 116.126 17.3804Q114.57 16.541 113.678 15.0557Q112.79 13.5703 112.79 11.6982Q112.79 9.82617 113.678 8.34521Q114.57 6.85986 116.126 6.0249Q117.686 5.18555 119.628 5.18555Q121.267 5.18555 122.59 5.76123Q123.913 6.33691 124.814 7.41797L122.942 9.14502Q121.663 7.66846 119.773 7.66846Q118.604 7.66846 117.686 8.18262Q116.767 8.69238 116.253 9.61084Q115.739 10.5293 115.739 11.6982Q115.739 12.8716 116.253 13.79Q116.767 14.7041 117.686 15.2183Q118.604 15.7324 119.773 15.7324Q121.663 15.7324 122.942 14.2383L124.814 15.9653Q123.913 17.064 122.581 17.6396Q121.25 18.2153 119.61 18.2153ZM132.069 18.2153Q130.105 18.2153 128.527 17.3716Q126.954 16.5234 126.062 15.0381Q125.174 13.5527 125.174 11.6982Q125.174 9.84814 126.062 8.36279Q126.954 6.87744 128.527 6.03369Q130.105 5.18555 132.069 5.18555Q134.029 5.18555 135.594 6.03369Q137.162 6.87744 138.059 8.36279Q138.96 9.84814 138.96 11.6982Q138.96 13.5527 138.059 15.0381Q137.162 16.5234 135.594 17.3716Q134.029 18.2153 132.069 18.2153ZM132.069 15.7324Q133.181 15.7324 134.082 15.2183Q134.983 14.7041 135.497 13.79Q136.011 12.8716 136.011 11.6982Q136.011 10.5293 135.497 9.61084Q134.983 8.69238 134.082 8.18262Q133.181 7.66846 132.069 7.66846Q130.953 7.66846 130.052 8.18262Q129.151 8.69238 128.637 9.61084Q128.123 10.5293 128.123 11.6982Q128.123 12.8716 128.637 13.79Q129.151 14.7041 130.052 15.2183Q130.953 15.7324 132.069 15.7324ZM140.617 5.40088L143.535 5.40088L143.535 15.6226L149.85 15.6226L149.85 18L140.617 18L140.617 5.40088ZM159.354 15.3018L153.505 15.3018L152.389 18L149.4 18L155.017 5.40088L157.895 5.40088L163.529 18L160.47 18L159.354 15.3018ZM158.436 13.0869L156.44 8.26172L154.441 13.0869L158.436 13.0869ZM166.286 7.77393L162.251 7.77393L162.251 5.40088L173.233 5.40088L173.233 7.77393L169.199 7.77393L169.199 18L166.286 18L166.286 7.77393ZM184.015 15.6621L184.015 18L174.259 18L174.259 5.40088L183.782 5.40088L183.782 7.73877L177.155 7.73877L177.155 10.4766L183.009 10.4766L183.009 12.7441L177.155 12.7441L177.155 15.6621L184.015 15.6621Z" fill="#111111" fill-opacity="1.000000" fill-rule="evenodd"/>
	<g clip-path="url(#clip34_4376)">
		<path id="Vector 14" d="M200.186 1.98853L192.103 15.0569L201.732 21.1038L208.392 10.5464L206.885 8.08667L206.842 5.60132L200.666 1.48291L200.186 1.98853Z" fill="#FCF1E0" fill-opacity="1.000000" fill-rule="evenodd"/>
		<path id="Vector" d="M207.819 6.14771L200.6 1.63647L191.798 16.0742L202.437 22.7222L209.527 11.0918C207.248 9.66724 206.352 8.55396 207.819 6.14771ZM205.371 17.9097L194.732 11.2617M197.666 6.44897L208.305 13.0972M197.118 19.3982L205.919 4.96045" stroke="#FD9222" stroke-opacity="1.000000" stroke-width="2.000000" stroke-linejoin="round"/>
	</g>
</svg>
