<svg width="168.122803" height="21.000000" viewBox="0 0 168.123 21" fill="none" xmlns="http://www.w3.org/2000/svg" xmlns:xlink="http://www.w3.org/1999/xlink">
	<defs>
		<clipPath id="clip149_3768">
			<rect id="chocolate" width="21.000000" height="21.000000" transform="translate(147.122803 0.000000)" fill="white" fill-opacity="0"/>
		</clipPath>
	</defs>
	<path id="SIMPLY CHOCOLATE" d="M3.93408 15.5671Q2.77197 15.5671 1.70898 15.2595C1.00037 15.0544 0.430664 14.7935 0 14.4768L0.92627 12.7268C1.37292 13.0527 1.87646 13.3044 2.43701 13.4822Q2.85986 13.6162 3.29309 13.6829Q3.72131 13.7488 4.15967 13.7488Q5.09619 13.7488 5.64307 13.4412Q6.0072 13.2341 6.12891 12.9299Q6.18994 12.7773 6.18994 12.6003C6.18994 12.311 6.04529 12.0898 5.75586 11.9373Q5.32178 11.7048 4.36816 11.4382C3.73474 11.2515 3.21631 11.0713 2.81299 10.8982C2.41199 10.7251 2.06445 10.4663 1.77051 10.1223Q1.74121 10.0879 1.71387 10.0518Q1.32959 9.5459 1.32959 8.74829Q1.32959 8.10864 1.56018 7.56714Q1.68689 7.26953 1.8833 7.00171Q1.90649 6.96997 1.93054 6.93872Q2.47961 6.22607 3.45215 5.8396Q4.46729 5.43286 5.81055 5.43286Q6.80518 5.43286 7.68701 5.65161Q8.56885 5.86694 9.19775 6.27026L8.34326 8.00659Q7.7998 7.63062 7.11279 7.44263Q6.42578 7.25122 5.68408 7.25122Q4.72021 7.25122 4.15967 7.5896Q3.76343 7.82642 3.64722 8.16064Q3.59912 8.29907 3.59912 8.45435C3.59912 8.6709 3.67773 8.85205 3.83496 8.9978C3.99451 9.14136 4.19495 9.25757 4.43652 9.34644C4.6803 9.43311 5.02209 9.53784 5.46191 9.66089C6.0863 9.82715 6.599 9.99707 7 10.1702C7.401 10.3433 7.74402 10.5962 8.02881 10.929Q8.06934 10.9761 8.10596 11.0259Q8.45605 11.5015 8.45605 12.2346Q8.45605 12.9265 8.19214 13.4961Q8.07141 13.7566 7.89551 13.9915C7.52405 14.4905 6.99768 14.8779 6.31641 15.1536Q5.29443 15.5671 3.93408 15.5671ZM60.9004 15.5671C59.9023 15.5671 58.9988 15.3506 58.1899 14.9177C57.3833 14.4824 56.7487 13.8799 56.2861 13.1096C55.8258 12.3394 55.5957 11.469 55.5957 10.4983C55.5957 9.52759 55.8258 8.6582 56.2861 7.89038C56.7487 7.12012 57.3833 6.51855 58.1899 6.08569C58.9988 5.65039 59.9069 5.43286 60.9141 5.43286C61.764 5.43286 62.5319 5.58203 63.2178 5.88062C63.9036 6.1792 64.4801 6.60864 64.9473 7.16919L63.4912 8.51245C62.8281 7.74683 62.0067 7.36401 61.0269 7.36401C60.4207 7.36401 59.8795 7.49731 59.4033 7.76392C58.9271 8.02832 58.5557 8.39844 58.2891 8.87476Q58.2471 8.94971 58.2096 9.02661Q57.8892 9.68433 57.8892 10.4983Q57.8892 11.3271 58.2189 11.9922L58.2195 11.9934Q58.2526 12.0603 58.2891 12.1252C58.5557 12.5991 58.9271 12.9695 59.4033 13.2361C59.8795 13.5027 60.4207 13.636 61.0269 13.636C62.0067 13.636 62.8281 13.2485 63.4912 12.4739L64.9473 13.8171C64.4801 14.3867 63.9014 14.8208 63.2109 15.1194C62.5205 15.418 61.7503 15.5671 60.9004 15.5671ZM81.6925 15.5671C80.674 15.5671 79.7556 15.3484 78.9376 14.9109C78.1218 14.4712 77.4827 13.8662 77.0201 13.0959C76.5598 12.3257 76.3297 11.46 76.3297 10.4983C76.3297 9.53906 76.5598 8.67432 77.0201 7.90405C77.4827 7.13379 78.1218 6.53003 78.9376 6.09253C79.7556 5.65283 80.674 5.43286 81.6925 5.43286C82.7087 5.43286 83.6225 5.65283 84.4337 6.09253C85.2472 6.53003 85.8864 7.13379 86.3512 7.90405C86.8183 8.67432 87.0519 9.53906 87.0519 10.4983C87.0519 11.46 86.8183 12.3257 86.3512 13.0959C85.8864 13.8662 85.2472 14.4712 84.4337 14.9109C83.6225 15.3484 82.7087 15.5671 81.6925 15.5671ZM93.0304 15.5671C92.0323 15.5671 91.1288 15.3506 90.3199 14.9177C89.5133 14.4824 88.8787 13.8799 88.4161 13.1096C87.9558 12.3394 87.7257 11.469 87.7257 10.4983C87.7257 9.52759 87.9558 8.6582 88.4161 7.89038C88.8787 7.12012 89.5133 6.51855 90.3199 6.08569C91.1288 5.65039 92.0369 5.43286 93.0441 5.43286C93.894 5.43286 94.6619 5.58203 95.3478 5.88062C96.0336 6.1792 96.6101 6.60864 97.0773 7.16919L95.6212 8.51245C94.9581 7.74683 94.1367 7.36401 93.1569 7.36401C92.5507 7.36401 92.0095 7.49731 91.5333 7.76392C91.0571 8.02832 90.6857 8.39844 90.4191 8.87476Q90.3773 8.94946 90.3398 9.02637L90.3396 9.02661Q90.0192 9.68433 90.0192 10.4983Q90.0192 11.3271 90.3489 11.9922L90.3495 11.9934Q90.3826 12.0603 90.4191 12.1252C90.6857 12.5991 91.0571 12.9695 91.5333 13.2361C92.0095 13.5027 92.5507 13.636 93.1569 13.636C94.1367 13.636 94.9581 13.2485 95.6212 12.4739L97.0773 13.8171C96.6101 14.3867 96.0314 14.8208 95.3409 15.1194C94.6505 15.418 93.8803 15.5671 93.0304 15.5671ZM102.72 15.5671Q101.373 15.5671 100.26 15.0569L100.256 15.0549Q100.109 14.9873 99.9656 14.9109C99.1498 14.4712 98.5107 13.8662 98.0481 13.0959C97.5878 12.3257 97.3577 11.46 97.3577 10.4983C97.3577 9.53906 97.5878 8.67432 98.0481 7.90405C98.5107 7.13379 99.1498 6.53003 99.9656 6.09253Q100.12 6.00952 100.279 5.93701Q101.385 5.43286 102.72 5.43286C103.737 5.43286 104.651 5.65283 105.462 6.09253Q106.187 6.48267 106.728 7.04907L106.728 7.04932Q107.096 7.43579 107.379 7.90405C107.846 8.67432 108.08 9.53906 108.08 10.4983C108.08 11.46 107.846 12.3257 107.379 13.0959Q107.1 13.5586 106.737 13.9419Q106.193 14.5154 105.462 14.9109C104.651 15.3484 103.737 15.5671 102.72 15.5671ZM10.99 5.60034L13.2732 5.60034L11.3113 15.3997L9.03149 15.3997L10.99 5.60034ZM26.1952 5.60034L24.2504 15.3997L22.121 15.3997L23.2694 9.57544L19.5302 14.364L18.5219 14.364L16.5052 9.52075L15.3295 15.3997L13.2035 15.3997L15.162 5.60034L17.0111 5.60034L19.4618 11.7048L24.2504 5.60034L26.1952 5.60034ZM32.0735 5.60034C33.2971 5.60034 34.2427 5.86914 34.9104 6.40698C35.578 6.94238 35.9119 7.69092 35.9119 8.65259C35.9119 9.4729 35.7181 10.1895 35.3308 10.8025C34.9434 11.4131 34.392 11.8813 33.6765 12.2073Q32.6067 12.696 31.1506 12.696L28.9666 12.696L28.4333 15.3997L26.1536 15.3997L28.1121 5.60034L32.0735 5.60034ZM37.8 5.60034L40.0833 5.60034L38.4871 13.5505L43.4021 13.5505L43.0227 15.3997L35.8416 15.3997L37.8 5.60034ZM48.246 11.9988L47.5726 15.3997L45.3031 15.3997L45.9901 11.8997L43.4711 5.60034L45.7372 5.60034L47.4872 9.96851L51.0043 5.60034L53.3422 5.60034L48.246 11.9988ZM75.0422 5.60034L75.0422 15.3997L72.7726 15.3997L72.7726 11.3801L68.3224 11.3801L68.3224 15.3997L66.0529 15.3997L66.0529 5.60034L68.3224 5.60034L68.3224 9.46265L72.7726 9.46265L72.7726 5.60034L75.0422 5.60034ZM109.369 5.60034L111.638 5.60034L111.638 13.5505L116.55 13.5505L116.55 14.615L120.569 5.60034L122.807 5.60034L127.189 15.3997L124.81 15.3997L123.942 13.301L119.393 13.301L118.525 15.3997L109.369 15.3997L109.369 5.60034ZM129.333 7.44604L126.195 7.44604L126.195 5.60034L134.737 5.60034L134.737 7.44604L131.599 7.44604L131.599 15.3997L129.333 15.3997L129.333 7.44604ZM143.123 13.5813L143.123 15.3997L135.535 15.3997L135.535 5.60034L142.942 5.60034L142.942 7.4187L137.787 7.4187L137.787 9.5481L142.34 9.5481L142.34 11.3118L137.787 11.3118L137.787 13.5813L143.123 13.5813ZM81.6925 13.636C82.269 13.636 82.7908 13.5027 83.2579 13.2361Q83.5811 13.0515 83.8403 12.801Q84.1431 12.5083 84.3585 12.1252C84.6251 11.6489 84.7584 11.1067 84.7584 10.4983C84.7584 9.89209 84.6251 9.35107 84.3585 8.87476Q84.1355 8.47632 83.819 8.177L83.8188 8.17676Q83.5677 7.93921 83.2579 7.76392C82.7908 7.49731 82.269 7.36401 81.6925 7.36401Q81.0209 7.36401 80.4496 7.60327Q80.2823 7.67334 80.1237 7.76392C79.6565 8.02832 79.2897 8.39844 79.0231 8.87476C78.7565 9.35107 78.6232 9.89209 78.6232 10.4983C78.6232 11.1067 78.7565 11.6489 79.0231 12.1252C79.2897 12.5991 79.6565 12.9695 80.1237 13.2361Q80.2823 13.3267 80.4496 13.3967Q81.0209 13.636 81.6925 13.636ZM102.72 13.636C103.297 13.636 103.819 13.5027 104.286 13.2361C104.753 12.9695 105.12 12.5991 105.386 12.1252C105.653 11.6489 105.786 11.1067 105.786 10.4983C105.786 9.89209 105.653 9.35107 105.386 8.87476C105.12 8.39844 104.753 8.02832 104.286 7.76392C103.819 7.49731 103.297 7.36401 102.72 7.36401C102.142 7.36401 101.619 7.49731 101.152 7.76392Q100.842 7.93921 100.591 8.177Q100.274 8.47632 100.051 8.87476C99.7844 9.35107 99.6511 9.89209 99.6511 10.4983C99.6511 11.1067 99.7844 11.6489 100.051 12.1252Q100.266 12.5083 100.569 12.801Q100.828 13.0515 101.152 13.2361C101.619 13.5027 102.142 13.636 102.72 13.636ZM31.2498 10.8503C32.0062 10.8503 32.5896 10.6782 32.9998 10.3342Q33.1548 10.2034 33.2708 10.0439Q33.615 9.57104 33.615 8.84741C33.615 8.38037 33.4589 8.03052 33.1467 7.7981C32.8345 7.56348 32.3833 7.44604 31.7932 7.44604L30.0159 7.44604L29.3323 10.8503L31.2498 10.8503ZM123.228 11.5784L121.676 7.82544L120.121 11.5784L123.228 11.5784Z" fill="#111111" fill-opacity="1.000000" fill-rule="evenodd"/>
	<g clip-path="url(#clip149_3768)">
		<path id="Vector 14" d="M156.783 1.73975L149.711 13.1743L158.137 18.4656L163.964 9.22778L162.645 7.07544L162.608 4.90088L157.203 1.29736L156.783 1.73975Z" fill="#FCF1E0" fill-opacity="1.000000" fill-rule="evenodd"/>
		<path id="Vector (Граница)" d="M164.334 5.17236C164.276 4.9292 164.142 4.7417 163.931 4.61011L157.614 0.662598C157.404 0.531006 157.178 0.493652 156.937 0.550537C156.697 0.607422 156.512 0.742188 156.383 0.954346L148.681 13.5881C148.551 13.8003 148.515 14.0281 148.573 14.2712C148.63 14.5144 148.765 14.7019 148.975 14.8335L158.285 20.6506C158.495 20.7822 158.721 20.8196 158.961 20.7627C159.202 20.7058 159.387 20.5713 159.516 20.3589L165.721 10.1819C165.85 9.96948 165.886 9.74194 165.828 9.49878C165.771 9.25537 165.637 9.06812 165.426 8.93628C164.93 8.62622 164.553 8.35547 164.295 8.12402C164.048 7.90259 163.883 7.69702 163.802 7.50708C163.734 7.34326 163.715 7.14795 163.754 6.93921C163.81 6.64136 163.967 6.28003 164.226 5.85547C164.355 5.64331 164.391 5.41553 164.334 5.17236ZM163.593 10.2141L163.739 9.97388C163.495 9.79858 163.285 9.63184 163.109 9.47412C162.663 9.07422 162.347 8.65649 162.159 8.22046C162.09 8.05884 162.037 7.8938 162.001 7.72485C161.923 7.36475 161.921 6.98853 161.994 6.59595C162.047 6.31201 162.142 6.01343 162.279 5.7002L162.095 5.58521L160.465 8.25952L163.593 10.2141ZM158.938 7.30566L160.569 4.63135L157.44 2.67676L155.81 5.35083L158.938 7.30566ZM154.873 6.88794L158.001 8.84253L156.371 11.5168L153.243 9.56226L154.873 6.88794ZM152.306 11.0991L155.434 13.054L153.804 15.728L150.676 13.7734L152.306 11.0991ZM155.33 16.6819L156.961 14.0078L160.089 15.9624L158.458 18.6367L155.33 16.6819ZM161.026 14.4253L157.898 12.4707L159.528 9.79639L162.656 11.7512L161.026 14.4253Z" fill="#FD9222" fill-opacity="1.000000" fill-rule="evenodd"/>
	</g>
</svg>
